999
dxfrw 0.6.3
  0
SECTION
  2
HEADER
  9
$ACADVER
  1
AC1021
  9
$DWGCODEPAGE
  3
ANSI_1252
  9
$INSBASE
 10
0
 20
0
 30
0
  9
$EXTMIN
 10
211.1741
 20
160.4254
 30
0
  9
$EXTMAX
 10
264.322
 20
187.8926
 30
0
  9
$LIMMIN
 10
0
 20
0
  9
$LIMMAX
 10
420
 20
297
  9
$ORTHOMODE
 70
    0
  9
$REGENMODE
 70
    1
  9
$FILLMODE
 70
    1
  9
$QTEXTMODE
 70
    0
  9
$MIRRTEXT
 70
    0
  9
$LTSCALE
 40
1
  9
$ATTMODE
 70
    0
  9
$TEXTSIZE
 40
2.5
  9
$TRACEWID
 40
15.68
  9
$TEXTSTYLE
  7
STANDARD
  9
$CLAYER
  8
0
  9
$CELTYPE
  6
BYLAYER
  9
$CECOLOR
 62
  256
  9
$CELTSCALE
 40
1
  9
$DISPSILH
 70
    0
  9
$DIMSCALE
 40
2.5
  9
$DIMASZ
 40
2.5
  9
$DIMEXO
 40
0.625
  9
$DIMDLI
 40
3.75
  9
$DIMRND
 40
0
  9
$DIMDLE
 40
0
  9
$DIMEXE
 40
1.25
  9
$DIMTP
 40
0
  9
$DIMTM
 40
0
  9
$DIMTXT
 40
2.5
  9
$DIMCEN
 40
2.5
  9
$DIMTSZ
 40
0
  9
$DIMTOL
 70
    0
  9
$DIMLIM
 70
    0
  9
$DIMTIH
 70
    0
  9
$DIMTOH
 70
    0
  9
$DIMSE1
 70
    0
  9
$DIMSE2
 70
    0
  9
$DIMTAD
 70
    1
  9
$DIMZIN
 70
    8
  9
$DIMBLK
  1

  9
$DIMASO
 70
    1
  9
$DIMSHO
 70
    1
  9
$DIMPOST
  1

  9
$DIMAPOST
  1

  9
$DIMALT
 70
    0
  9
$DIMALTD
 70
    3
  9
$DIMALTF
 40
0.03937
  9
$DIMLFAC
 40
1
  9
$DIMTOFL
 70
    1
  9
$DIMTVP
 40
0
  9
$DIMTIX
 70
    0
  9
$DIMSOXD
 70
    0
  9
$DIMSAH
 70
    0
  9
$DIMBLK1
  1

  9
$DIMBLK2
  1

  9
$DIMSTYLE
  2
STANDARD
  9
$DIMCLRD
 70
    0
  9
$DIMCLRE
 70
    0
  9
$DIMCLRT
 70
    0
  9
$DIMTFAC
 40
1
  9
$DIMGAP
 40
0.625
  9
$DIMJUST
 70
    0
  9
$DIMSD1
 70
    0
  9
$DIMSD2
 70
    0
  9
$DIMTOLJ
 70
    0
  9
$DIMTZIN
 70
    8
  9
$DIMALTZ
 70
    0
  9
$DIMALTTZ
 70
    0
  9
$DIMUPT
 70
    0
  9
$DIMDEC
 70
    2
  9
$DIMTDEC
 70
    2
  9
$DIMALTU
 70
    2
  9
$DIMALTTD
 70
    3
  9
$DIMTXSTY
  7
STANDARD
  9
$DIMAUNIT
 70
    0
  9
$DIMADEC
 70
    0
  9
$DIMALTRND
 40
0
  9
$DIMAZIN
 70
    0
  9
$DIMDSEP
 70
   44
  9
$DIMATFIT
 70
    3
  9
$DIMFRAC
 70
    0
  9
$DIMLDRBLK
  1
STANDARD
  9
$DIMLUNIT
 70
    2
  9
$DIMLWD
 70
   -2
  9
$DIMLWE
 70
   -2
  9
$DIMTMOVE
 70
    0
  9
$DIMFXL
 40
1
  9
$DIMFXLON
 70
    0
  9
$DIMJOGANG
 40
0.7854
  9
$DIMTFILL
 70
    0
  9
$DIMTFILLCLR
 70
    0
  9
$DIMARCSYM
 70
    0
  9
$DIMLTYPE
  6

  9
$DIMLTEX1
  6

  9
$DIMLTEX2
  6

  9
$LUNITS
 70
    2
  9
$LUPREC
 70
    4
  9
$SKETCHINC
 40
1
  9
$FILLETRAD
 40
0
  9
$AUNITS
 70
    0
  9
$AUPREC
 70
    2
  9
$MENU
  1
.
  9
$ELEVATION
 40
0
  9
$PELEVATION
 40
0
  9
$THICKNESS
 40
0
  9
$LIMCHECK
 70
    0
  9
$CHAMFERA
 40
0
  9
$CHAMFERB
 40
0
  9
$CHAMFERC
 40
0
  9
$CHAMFERD
 40
0
  9
$SKPOLY
 70
    0
  9
$USRTIMER
 70
    1
  9
$ANGBASE
 50
0
  9
$ANGDIR
 70
    0
  9
$PDMODE
 70
   34
  9
$PDSIZE
 40
0
  9
$PLINEWID
 40
0
  9
$SPLFRAME
 70
    0
  9
$SPLINETYPE
 70
    2
  9
$SPLINESEGS
 70
    8
  9
$HANDSEED
  5
20000
  9
$SURFTAB1
 70
    6
  9
$SURFTAB2
 70
    6
  9
$SURFTYPE
 70
    6
  9
$SURFU
 70
    6
  9
$SURFV
 70
    6
  9
$UCSBASE
  2

  9
$UCSNAME
  2

  9
$UCSORG
 10
0
 20
0
 30
0
  9
$UCSXDIR
 10
1
 20
0
 30
0
  9
$UCSYDIR
 10
0
 20
1
 30
0
  9
$UCSORTHOREF
  2

  9
$UCSORTHOVIEW
 70
    0
  9
$UCSORGTOP
 10
0
 20
0
 30
0
  9
$UCSORGBOTTOM
 10
0
 20
0
 30
0
  9
$UCSORGLEFT
 10
0
 20
0
 30
0
  9
$UCSORGRIGHT
 10
0
 20
0
 30
0
  9
$UCSORGFRONT
 10
0
 20
0
 30
0
  9
$UCSORGBACK
 10
0
 20
0
 30
0
  9
$PUCSBASE
  2

  9
$PUCSNAME
  2

  9
$PUCSORG
 10
0
 20
0
 30
0
  9
$PUCSXDIR
 10
1
 20
0
 30
0
  9
$PUCSYDIR
 10
0
 20
1
 30
0
  9
$PUCSORTHOREF
  2

  9
$PUCSORTHOVIEW
 70
    0
  9
$PUCSORGTOP
 10
0
 20
0
 30
0
  9
$PUCSORGBOTTOM
 10
0
 20
0
 30
0
  9
$PUCSORGLEFT
 10
0
 20
0
 30
0
  9
$PUCSORGRIGHT
 10
0
 20
0
 30
0
  9
$PUCSORGFRONT
 10
0
 20
0
 30
0
  9
$PUCSORGBACK
 10
0
 20
0
 30
0
  9
$USERI1
 70
    0
  9
$USERI2
 70
    0
  9
$USERI3
 70
    0
  9
$USERI4
 70
    0
  9
$USERI5
 70
    0
  9
$USERR1
 40
0
  9
$USERR2
 40
0
  9
$USERR3
 40
0
  9
$USERR4
 40
0
  9
$USERR5
 40
0
  9
$WORLDVIEW
 70
    1
  9
$SHADEDGE
 70
    3
  9
$SHADEDIF
 70
   70
  9
$TILEMODE
 70
    1
  9
$MAXACTVP
 70
   64
  9
$PINSBASE
 10
0
 20
0
 30
0
  9
$PLIMCHECK
 70
    0
  9
$PEXTMIN
 10
0
 20
0
 30
0
  9
$PEXTMAX
 10
50
 20
50
 30
50
  9
$GRIDMODE
 70
    0
  9
$SNAPSTYLE
 70
    0
  9
$PLIMMIN
 10
0
 20
0
  9
$PLIMMAX
 10
210
 20
297
  9
$UNITMODE
 70
    0
  9
$VISRETAIN
 70
    1
  9
$PLINEGEN
 70
    0
  9
$PSLTSCALE
 70
    1
  9
$TREEDEPTH
 70
 3020
  9
$CMLSTYLE
  2
STANDARD
  9
$CMLJUST
 70
    0
  9
$CMLSCALE
 40
20
  9
$PROXYGRAPHICS
 70
    1
  9
$MEASUREMENT
 70
    1
  9
$CELWEIGHT
370
   -1
  9
$ENDCAPS
280
    0
  9
$JOINSTYLE
280
    0
  9
$LWDISPLAY
290
    0
  9
$INSUNITS
 70
    4
  9
$HYPERLINKBASE
  1

  9
$STYLESHEET
  1

  9
$XEDIT
290
    1
  9
$CEPSNTYPE
380
    0
  9
$PSTYLEMODE
290
    1
  9
$EXTNAMES
290
    1
  9
$PSVPSCALE
 40
1
  9
$OLESTARTUP
290
    0
  9
$SORTENTS
280
  127
  9
$INDEXCTL
280
    0
  9
$HIDETEXT
280
    1
  9
$XCLIPFRAME
290
    0
  9
$HALOGAP
280
    0
  9
$OBSCOLOR
 70
  257
  9
$OBSLTYPE
280
    0
  9
$INTERSECTIONDISPLAY
280
    0
  9
$INTERSECTIONCOLOR
 70
  257
  9
$DIMASSOC
280
    1
  9
$PROJECTNAME
  1

  9
$CAMERADISPLAY
290
    0
  9
$LENSLENGTH
 40
50
  9
$CAMERAHEIGHT
 40
0
  9
$STEPSPERSEC
 40
2
  9
$STEPSIZE
 40
50
  9
$3DDWFPREC
 40
2
  9
$PSOLWIDTH
 40
5
  9
$PSOLHEIGHT
 40
80
  9
$LOFTANG1
 40
1.570796326794897
  9
$LOFTANG2
 40
1.570796326794897
  9
$LOFTMAG1
 40
0
  9
$LOFTMAG2
 40
0
  9
$LOFTPARAM
 70
    7
  9
$LOFTNORMALS
280
    1
  9
$LATITUDE
 40
1
  9
$LONGITUDE
 40
1
  9
$NORTHDIRECTION
 40
0
  9
$TIMEZONE
 70
-8000
  9
$LIGHTGLYPHDISPLAY
280
    1
  9
$TILEMODELIGHTSYNCH
280
    1
  9
$SOLIDHIST
280
    1
  9
$SHOWHIST
280
    1
  9
$DWFFRAME
280
    2
  9
$DGNFRAME
280
    0
  9
$REALWORLDSCALE
290
    1
  9
$INTERFERECOLOR
 62
    1
  9
$CSHADOW
280
    0
  9
$SHADOWPLANELOCATION
 40
0
  0
ENDSEC
  0
SECTION
  2
CLASSES
  0
ENDSEC
  0
SECTION
  2
TABLES
  0
TABLE
  2
VPORT
  5
8
330
0
100
AcDbSymbolTable
 70
    1
  0
VPORT
  5
31
330
2
100
AcDbSymbolTableRecord
100
AcDbViewportTableRecord
  2
*ACTIVE
 70
    0
 10
0
 20
0
 11
1
 21
1
 12
142.137386503222
 22
100.0042466504797
 13
0
 23
0
 14
10
 24
10
 15
10
 25
10
 16
0
 26
0
 36
1
 17
0
 27
0
 37
0
 40
51.55113581982594
 41
1.901442307692308
 42
50
 43
0
 44
0
 50
0
 51
0
 71
    0
 72
  100
 73
    1
 74
    3
 75
    0
 76
    0
 77
    0
 78
    0
281
    0
 65
    1
110
0
120
0
130
0
111
1
121
0
131
0
112
0
122
1
132
0
 79
    0
146
0
348
10020
 60
    7
 61
    5
292
1
282
    1
141
0
142
0
 63
  250
421
3358443
  0
ENDTAB
  0
TABLE
  2
LTYPE
  5
5
330
0
100
AcDbSymbolTable
 70
    4
  0
LTYPE
  5
14
330
5
100
AcDbSymbolTableRecord
100
AcDbLinetypeTableRecord
  2
ByBlock
 70
    0
  3

 72
   65
 73
    0
 40
0
  0
LTYPE
  5
15
330
5
100
AcDbSymbolTableRecord
100
AcDbLinetypeTableRecord
  2
ByLayer
 70
    0
  3

 72
   65
 73
    0
 40
0
  0
LTYPE
  5
16
330
5
100
AcDbSymbolTableRecord
100
AcDbLinetypeTableRecord
  2
Continuous
 70
    0
  3
Solid line
 72
   65
 73
    0
 40
0
  0
LTYPE
  5
32
330
5
100
AcDbSymbolTableRecord
100
AcDbLinetypeTableRecord
  2
DOT
 70
    0
  3
Dot . . . . . . . . . . . . . . . . . . . . . .
 72
   65
 73
    2
 40
6.35
 49
0
 74
    0
 49
-6.35
 74
    0
  0
LTYPE
  5
33
330
5
100
AcDbSymbolTableRecord
100
AcDbLinetypeTableRecord
  2
DOTTINY
 70
    0
  3
Dot (.15x) .....................................
 72
   65
 73
    2
 40
0.9525
 49
0
 74
    0
 49
-0.9525
 74
    0
  0
LTYPE
  5
34
330
5
100
AcDbSymbolTableRecord
100
AcDbLinetypeTableRecord
  2
DOT2
 70
    0
  3
Dot (.5x) .....................................
 72
   65
 73
    2
 40
3.175
 49
0
 74
    0
 49
-3.175
 74
    0
  0
LTYPE
  5
35
330
5
100
AcDbSymbolTableRecord
100
AcDbLinetypeTableRecord
  2
DOTX2
 70
    0
  3
Dot (2x) .  .  .  .  .  .  .  .  .  .  .  .  .
 72
   65
 73
    2
 40
12.7
 49
0
 74
    0
 49
-12.7
 74
    0
  0
LTYPE
  5
36
330
5
100
AcDbSymbolTableRecord
100
AcDbLinetypeTableRecord
  2
DASHED
 70
    0
  3
Dashed _ _ _ _ _ _ _ _ _ _ _ _ _ _ _ _ _
 72
   65
 73
    2
 40
19.05
 49
12.7
 74
    0
 49
-6.35
 74
    0
  0
LTYPE
  5
37
330
5
100
AcDbSymbolTableRecord
100
AcDbLinetypeTableRecord
  2
DASHEDTINY
 70
    0
  3
Dashed (.15x) _ _ _ _ _ _ _ _ _ _ _ _ _ _ _ _ _
 72
   65
 73
    2
 40
2.8575
 49
1.905
 74
    0
 49
-0.9525
 74
    0
  0
LTYPE
  5
38
330
5
100
AcDbSymbolTableRecord
100
AcDbLinetypeTableRecord
  2
DASHED2
 70
    0
  3
Dashed (.5x) _ _ _ _ _ _ _ _ _ _ _ _ _ _ _ _ _
 72
   65
 73
    2
 40
9.524999999999999
 49
6.35
 74
    0
 49
-3.175
 74
    0
  0
LTYPE
  5
39
330
5
100
AcDbSymbolTableRecord
100
AcDbLinetypeTableRecord
  2
DASHEDX2
 70
    0
  3
Dashed (2x) ____  ____  ____  ____  ____  ___
 72
   65
 73
    2
 40
38.09999999999999
 49
25.4
 74
    0
 49
-12.7
 74
    0
  0
LTYPE
  5
3A
330
5
100
AcDbSymbolTableRecord
100
AcDbLinetypeTableRecord
  2
DASHDOT
 70
    0
  3
Dash dot __ . __ . __ . __ . __ . __ . __ . __
 72
   65
 73
    4
 40
25.4
 49
12.7
 74
    0
 49
-6.35
 74
    0
 49
0
 74
    0
 49
-6.35
 74
    0
  0
LTYPE
  5
3B
330
5
100
AcDbSymbolTableRecord
100
AcDbLinetypeTableRecord
  2
DASHDOTTINY
 70
    0
  3
Dash dot (.15x) _._._._._._._._._._._._._._._.
 72
   65
 73
    4
 40
3.81
 49
1.905
 74
    0
 49
-0.9525
 74
    0
 49
0
 74
    0
 49
-0.9525
 74
    0
  0
LTYPE
  5
3C
330
5
100
AcDbSymbolTableRecord
100
AcDbLinetypeTableRecord
  2
DASHDOT2
 70
    0
  3
Dash dot (.5x) _._._._._._._._._._._._._._._.
 72
   65
 73
    4
 40
12.7
 49
6.35
 74
    0
 49
-3.175
 74
    0
 49
0
 74
    0
 49
-3.175
 74
    0
  0
LTYPE
  5
3D
330
5
100
AcDbSymbolTableRecord
100
AcDbLinetypeTableRecord
  2
DASHDOTX2
 70
    0
  3
Dash dot (2x) ____  .  ____  .  ____  .  ___
 72
   65
 73
    4
 40
50.8
 49
25.4
 74
    0
 49
-12.7
 74
    0
 49
0
 74
    0
 49
-12.7
 74
    0
  0
LTYPE
  5
3E
330
5
100
AcDbSymbolTableRecord
100
AcDbLinetypeTableRecord
  2
DIVIDE
 70
    0
  3
Divide ____ . . ____ . . ____ . . ____ . . ____
 72
   65
 73
    6
 40
31.75
 49
12.7
 74
    0
 49
-6.35
 74
    0
 49
0
 74
    0
 49
-6.35
 74
    0
 49
0
 74
    0
 49
-6.35
 74
    0
  0
LTYPE
  5
3F
330
5
100
AcDbSymbolTableRecord
100
AcDbLinetypeTableRecord
  2
DIVIDETINY
 70
    0
  3
Divide (.15x) __..__..__..__..__..__..__..__.._
 72
   65
 73
    6
 40
4.7625
 49
1.905
 74
    0
 49
-0.9525
 74
    0
 49
0
 74
    0
 49
-0.9525
 74
    0
 49
0
 74
    0
 49
-0.9525
 74
    0
  0
LTYPE
  5
40
330
5
100
AcDbSymbolTableRecord
100
AcDbLinetypeTableRecord
  2
DIVIDE2
 70
    0
  3
Divide (.5x) __..__..__..__..__..__..__..__.._
 72
   65
 73
    6
 40
15.875
 49
6.35
 74
    0
 49
-3.175
 74
    0
 49
0
 74
    0
 49
-3.175
 74
    0
 49
0
 74
    0
 49
-3.175
 74
    0
  0
LTYPE
  5
41
330
5
100
AcDbSymbolTableRecord
100
AcDbLinetypeTableRecord
  2
DIVIDEX2
 70
    0
  3
Divide (2x) ________  .  .  ________  .  .  _
 72
   65
 73
    6
 40
63.5
 49
25.4
 74
    0
 49
-12.7
 74
    0
 49
0
 74
    0
 49
-12.7
 74
    0
 49
0
 74
    0
 49
-12.7
 74
    0
  0
LTYPE
  5
42
330
5
100
AcDbSymbolTableRecord
100
AcDbLinetypeTableRecord
  2
BORDER
 70
    0
  3
Border __ __ . __ __ . __ __ . __ __ . __ __ .
 72
   65
 73
    6
 40
44.45
 49
12.7
 74
    0
 49
-6.35
 74
    0
 49
12.7
 74
    0
 49
-6.35
 74
    0
 49
0
 74
    0
 49
-6.35
 74
    0
  0
LTYPE
  5
43
330
5
100
AcDbSymbolTableRecord
100
AcDbLinetypeTableRecord
  2
BORDERTINY
 70
    0
  3
Border (.15x) __.__.__.__.__.__.__.__.__.__.__.
 72
   65
 73
    6
 40
6.6675
 49
1.905
 74
    0
 49
-0.9525
 74
    0
 49
1.905
 74
    0
 49
-0.9525
 74
    0
 49
0
 74
    0
 49
-0.9525
 74
    0
  0
LTYPE
  5
44
330
5
100
AcDbSymbolTableRecord
100
AcDbLinetypeTableRecord
  2
BORDER2
 70
    0
  3
Border (.5x) __.__.__.__.__.__.__.__.__.__.__.
 72
   65
 73
    6
 40
22.225
 49
6.35
 74
    0
 49
-3.175
 74
    0
 49
6.35
 74
    0
 49
-3.175
 74
    0
 49
0
 74
    0
 49
-3.175
 74
    0
  0
LTYPE
  5
45
330
5
100
AcDbSymbolTableRecord
100
AcDbLinetypeTableRecord
  2
BORDERX2
 70
    0
  3
Border (2x) ____  ____  .  ____  ____  .  ___
 72
   65
 73
    6
 40
88.89999999999999
 49
25.4
 74
    0
 49
-12.7
 74
    0
 49
25.4
 74
    0
 49
-12.7
 74
    0
 49
0
 74
    0
 49
-12.7
 74
    0
  0
LTYPE
  5
46
330
5
100
AcDbSymbolTableRecord
100
AcDbLinetypeTableRecord
  2
CENTER
 70
    0
  3
Center ____ _ ____ _ ____ _ ____ _ ____ _ ____
 72
   65
 73
    4
 40
50.8
 49
31.75
 74
    0
 49
-6.35
 74
    0
 49
6.35
 74
    0
 49
-6.35
 74
    0
  0
LTYPE
  5
47
330
5
100
AcDbSymbolTableRecord
100
AcDbLinetypeTableRecord
  2
CENTERTINY
 70
    0
  3
Center (.15x) ___ _ ___ _ ___ _ ___ _ ___ _ ___
 72
   65
 73
    4
 40
7.619999999999999
 49
4.7625
 74
    0
 49
-0.9525
 74
    0
 49
0.9525
 74
    0
 49
-0.9525
 74
    0
  0
LTYPE
  5
48
330
5
100
AcDbSymbolTableRecord
100
AcDbLinetypeTableRecord
  2
CENTER2
 70
    0
  3
Center (.5x) ___ _ ___ _ ___ _ ___ _ ___ _ ___
 72
   65
 73
    4
 40
28.575
 49
19.05
 74
    0
 49
-3.175
 74
    0
 49
3.175
 74
    0
 49
-3.175
 74
    0
  0
LTYPE
  5
49
330
5
100
AcDbSymbolTableRecord
100
AcDbLinetypeTableRecord
  2
CENTERX2
 70
    0
  3
Center (2x) ________  __  ________  __  _____
 72
   65
 73
    4
 40
101.6
 49
63.5
 74
    0
 49
-12.7
 74
    0
 49
12.7
 74
    0
 49
-12.7
 74
    0
  0
ENDTAB
  0
TABLE
  2
LAYER
  5
2
330
0
100
AcDbSymbolTable
 70
    1
  0
LAYER
  5
10
330
2
100
AcDbSymbolTableRecord
100
AcDbLayerTableRecord
  2
0
 70
    0
 62
    7
  6
CONTINUOUS
370
   -3
390
F
  0
LAYER
  5
4A
330
2
100
AcDbSymbolTableRecord
100
AcDbLayerTableRecord
  2
View
 70
    0
 62
    7
  6
CONTINUOUS
370
   -3
390
F
  0
LAYER
  5
4B
330
2
100
AcDbSymbolTableRecord
100
AcDbLayerTableRecord
  2
View001
 70
    0
 62
    7
  6
CONTINUOUS
370
   -3
390
F
  0
LAYER
  5
4C
330
2
100
AcDbSymbolTableRecord
100
AcDbLayerTableRecord
  2
View002
 70
    0
 62
    7
  6
CONTINUOUS
370
   -3
390
F
  0
ENDTAB
  0
TABLE
  2
STYLE
  5
3
330
0
100
AcDbSymbolTable
 70
    3
  0
STYLE
  5
4D
330
2
100
AcDbSymbolTableRecord
100
AcDbTextStyleTableRecord
  2
Standard
 70
    0
 40
0
 41
1
 50
0
 71
    0
 42
1
  3
txt
  4

  0
ENDTAB
  0
TABLE
  2
VIEW
  5
6
330
0
100
AcDbSymbolTable
 70
    0
  0
ENDTAB
  0
TABLE
  2
UCS
  5
7
330
0
100
AcDbSymbolTable
 70
    0
  0
ENDTAB
  0
TABLE
  2
APPID
  5
9
330
0
100
AcDbSymbolTable
 70
    1
  0
APPID
  5
12
330
9
100
AcDbSymbolTableRecord
100
AcDbRegAppTableRecord
  2
ACAD
 70
    0
  0
APPID
  5
4E
330
9
100
AcDbSymbolTableRecord
100
AcDbRegAppTableRecord
  2
LibreCad
 70
    0
  0
ENDTAB
  0
TABLE
  2
DIMSTYLE
  5
A
330
0
100
AcDbSymbolTable
 70
    1
100
AcDbDimStyleTable
 71
    1
  0
DIMSTYLE
105
4F
330
A
100
AcDbSymbolTableRecord
100
AcDbDimStyleTableRecord
  2
Standard
 70
    0
 40
1
 41
2.5
 42
0.625
 43
0.38
 44
1.25
 45
0
 46
0
 47
0
 48
0
 49
1
140
2.5
141
0.09
142
2.5
143
25.4
144
1
145
0
146
1
147
0.625
148
0
 71
    0
 72
    0
 73
    0
 74
    1
 75
    0
 76
    0
 77
    0
 78
    1
 79
    0
170
    0
171
    2
172
    0
173
    0
174
    0
175
    0
176
    0
177
    0
178
    0
179
    0
271
    2
272
    4
273
    2
274
    2
275
    0
276
    0
277
    2
278
    0
279
    0
280
    0
281
    0
282
    0
283
    1
284
    0
285
    0
286
    0
288
    0
289
    3
340
STANDARD
341

371
   -2
372
   -2
  0
ENDTAB
  0
TABLE
  2
BLOCK_RECORD
  5
1
330
0
100
AcDbSymbolTable
 70
    2
  0
BLOCK_RECORD
  5
1F
330
1
100
AcDbSymbolTableRecord
100
AcDbBlockTableRecord
  2
*Model_Space
 70
    0
280
    1
281
    0
  0
BLOCK_RECORD
  5
1E
330
1
100
AcDbSymbolTableRecord
100
AcDbBlockTableRecord
  2
*Paper_Space
 70
    0
280
    1
281
    0
  0
ENDTAB
  0
ENDSEC
  0
SECTION
  2
BLOCKS
  0
BLOCK
  5
20
330
1F
100
AcDbEntity
  8
0
100
AcDbBlockBegin
  2
*Model_Space
 70
    0
 10
0
 20
0
 30
0
  3
*Model_Space
  1

  0
ENDBLK
  5
21
330
1F
100
AcDbEntity
  8
0
100
AcDbBlockEnd
  0
BLOCK
  5
1C
330
1B
100
AcDbEntity
  8
0
100
AcDbBlockBegin
  2
*Paper_Space
 70
    0
 10
0
 20
0
 30
0
  3
*Paper_Space
  1

  0
ENDBLK
  5
1D
330
1F
100
AcDbEntity
  8
0
100
AcDbBlockEnd
  0
ENDSEC
  0
SECTION
  2
ENTITIES
  0
ELLIPSE
  5
50
100
AcDbEntity
  8
View002
  6
ByLayer
 62
  256
370
   -1
100
AcDbEllipse
 10
224.938
 20
174.159
 30
0
 11
10.6988
 21
6.4556
 31
0
 40
1
 41
4.6054
 42
5.03334
  0
ARC
  5
51
100
AcDbEntity
  8
View002
  6
ByLayer
 62
  256
370
   -1
100
AcDbCircle
 10
224.938
 20
174.159
 40
12.4596
100
AcDbArc
 50
143.778
 51
-143.778
  0
ARC
  5
52
100
AcDbEntity
  8
View002
  6
ByLayer
 62
  256
370
   -1
100
AcDbCircle
 10
224.938
 20
174.159
 40
13.7209
100
AcDbArc
 50
40.3008
 51
-68.35809999999999
  0
ARC
  5
53
100
AcDbEntity
  8
View002
  6
ByLayer
 62
  256
370
   -1
100
AcDbCircle
 10
224.938
 20
174.159
 40
13.7336
100
AcDbArc
 50
72.40479999999999
 51
107.595
  0
ARC
  5
54
100
AcDbEntity
  8
View002
  6
ByLayer
 62
  256
370
   -1
100
AcDbCircle
 10
224.938
 20
174.159
 40
13.7639
100
AcDbArc
 50
108.787
 51
-108.787
  0
ARC
  5
55
100
AcDbEntity
  8
View002
  6
ByLayer
 62
  256
370
   -1
100
AcDbCircle
 10
224.938
 20
174.159
 40
13.7336
100
AcDbArc
 50
-107.595
 51
-78.9666
  0
ELLIPSE
  5
56
100
AcDbEntity
  8
View002
  6
ByLayer
 62
  256
370
   -1
100
AcDbEllipse
 10
224.938
 20
174.159
 30
0
 11
12.8748
 21
4.86641
 31
0
 40
1
 41
4.54539
 42
5.21339
  0
ELLIPSE
  5
57
100
AcDbEntity
  8
View002
  6
ByLayer
 62
  256
370
   -1
100
AcDbEllipse
 10
422.866
 20
2.50308
 30
0
 11
187.467
 21
-162.732
 31
0
 40
0.0110558
 41
-3.1342
 42
-3.13096
  0
ELLIPSE
  5
58
100
AcDbEntity
  8
View002
  6
ByLayer
 62
  256
370
   -1
100
AcDbEllipse
 10
224.938
 20
174.159
 30
0
 11
-11.9997
 21
-6.72747
 31
0
 40
1
 41
-4.82974
 42
-4.36034
  0
LINE
  5
59
100
AcDbEntity
  8
View002
  6
ByLayer
 62
  256
370
   -1
100
AcDbLine
 10
239.35
 20
165.555
 11
236.153
 21
165.555
  0
ELLIPSE
  5
5A
100
AcDbEntity
  8
View002
  6
ByLayer
 62
  256
370
   -1
100
AcDbEllipse
 10
236.156
 20
164.551
 30
0
 11
0.147098
 21
0.994324
 31
0
 40
0.999852
 41
-6.13349
 42
-5.2717
  0
ELLIPSE
  5
5B
100
AcDbEntity
  8
View002
  6
ByLayer
 62
  256
370
   -1
100
AcDbEllipse
 10
250.566
 20
174.159
 30
0
 11
12.4837
 21
-5.79671
 31
0
 40
1
 41
4.2849
 42
4.85488
  0
ELLIPSE
  5
5C
100
AcDbEntity
  8
View002
  6
ByLayer
 62
  256
370
   -1
100
AcDbEllipse
 10
239.348
 20
164.551
 30
0
 11
-0.147098
 21
0.994323
 31
0
 40
0.999852
 41
-1.0138
 42
-0.149202
  0
LINE
  5
5D
100
AcDbEntity
  8
View002
  6
ByLayer
 62
  256
370
   -1
100
AcDbLine
 10
239.35
 20
165.569
 11
236.154
 21
165.569
  0
ELLIPSE
  5
5E
100
AcDbEntity
  8
View002
  6
ByLayer
 62
  256
370
   -1
100
AcDbEllipse
 10
236.158
 20
164.565
 30
0
 11
0.147098
 21
0.994324
 31
0
 40
0.999852
 41
0.150939
 42
1.01426
  0
SPLINE
  5
5F
100
AcDbEntity
  8
View002
  6
ByLayer
 62
  256
370
   -1
100
AcDbSpline
210
0
220
0
230
0
 70
    8
 71
    1
 72
    4
 73
    2
 74
    0
 42
1e-07
 43
1e-07
 40
-0.55697
 40
-0.55697
 40
-0.210255
 40
-0.210255
 10
246.631
 20
161.001
 30
0
 10
246.601
 20
160.979
 30
0
  0
ARC
  5
60
100
AcDbEntity
  8
View002
  6
ByLayer
 62
  256
370
   -1
100
AcDbCircle
 10
250.566
 20
174.159
 40
13.7336
100
AcDbArc
 50
-106.649
 51
-72.40479999999999
  0
ARC
  5
61
100
AcDbEntity
  8
View002
  6
ByLayer
 62
  256
370
   -1
100
AcDbCircle
 10
250.566
 20
174.159
 40
13.7639
100
AcDbArc
 50
-71.2132
 51
-10.8532
  0
ARC
  5
62
100
AcDbEntity
  8
View002
  6
ByLayer
 62
  256
370
   -1
100
AcDbCircle
 10
250.566
 20
174.159
 40
13.756
100
AcDbArc
 50
-10.524
 51
10.524
  0
ARC
  5
63
100
AcDbEntity
  8
View002
  6
ByLayer
 62
  256
370
   -1
100
AcDbCircle
 10
250.566
 20
174.159
 40
13.7639
100
AcDbArc
 50
10.8532
 51
71.2132
  0
ARC
  5
64
100
AcDbEntity
  8
View002
  6
ByLayer
 62
  256
370
   -1
100
AcDbCircle
 10
250.566
 20
174.159
 40
13.7336
100
AcDbArc
 50
72.40479999999999
 51
107.595
  0
ELLIPSE
  5
65
100
AcDbEntity
  8
View002
  6
ByLayer
 62
  256
370
   -1
100
AcDbEllipse
 10
250.566
 20
174.159
 30
0
 11
-12.3239
 21
-6.12909
 31
0
 40
1
 41
4.57877
 42
5.11325
  0
SPLINE
  5
66
100
AcDbEntity
  8
View002
  6
ByLayer
 62
  256
370
   -1
100
AcDbSpline
210
0
220
0
230
0
 70
    8
 71
    1
 72
    4
 73
    2
 74
    0
 42
1e-07
 43
1e-07
 40
0
 40
0
 40
1
 40
1
 10
240.102
 20
183.034
 30
0
 10
240.113
 20
183.114
 30
0
  0
ELLIPSE
  5
67
100
AcDbEntity
  8
View002
  6
ByLayer
 62
  256
370
   -1
100
AcDbEllipse
 10
250.566
 20
174.159
 30
0
 11
-11.9997
 21
6.72744
 31
0
 40
1
 41
-5.06444
 42
-4.59504
  0
ELLIPSE
  5
68
100
AcDbEntity
  8
View002
  6
ByLayer
 62
  256
370
   -1
100
AcDbEllipse
 10
239.346
 20
164.565
 30
0
 11
-0.147098
 21
0.994323
 31
0
 40
0.999852
 41
-1.0143
 42
-0.151023
  0
LINE
  5
69
100
AcDbEntity
  8
View002
  6
ByLayer
 62
  256
370
   -1
100
AcDbLine
 10
245.289
 20
162.832
 11
245.289
 21
161.454
  0
ELLIPSE
  5
6A
100
AcDbEntity
  8
View002
  6
ByLayer
 62
  256
370
   -1
100
AcDbEllipse
 10
250.566
 20
174.159
 30
0
 11
10.6987
 21
-6.45579
 31
0
 40
1
 41
4.39138
 42
4.81939
  0
ELLIPSE
  5
6B
100
AcDbEntity
  8
View002
  6
ByLayer
 62
  256
370
   -1
100
AcDbEllipse
 10
239.915
 20
165.067
 30
0
 11
-0.177779
 21
1.49719
 31
0
 40
0.999857
 41
-0.984166
 42
-0.118443
  0
LINE
  5
6C
100
AcDbEntity
  8
View002
  6
ByLayer
 62
  256
370
   -1
100
AcDbLine
 10
239.916
 20
166.574
 11
235.588
 21
166.574
  0
ELLIPSE
  5
6D
100
AcDbEntity
  8
View002
  6
ByLayer
 62
  256
370
   -1
100
AcDbEllipse
 10
235.589
 20
165.067
 30
0
 11
0.177779
 21
1.49719
 31
0
 40
0.999857
 41
0.11849
 42
0.9848170000000001
  0
LINE
  5
6E
100
AcDbEntity
  8
View002
  6
ByLayer
 62
  256
370
   -1
100
AcDbLine
 10
230.214
 20
161.454
 11
230.214
 21
162.832
  0
LINE
  5
6F
100
AcDbEntity
  8
View002
  6
ByLayer
 62
  256
370
   -1
100
AcDbLine
 10
230.051
 20
164.258
 11
230.051
 21
162.787
  0
LINE
  5
70
100
AcDbEntity
  8
View002
  6
ByLayer
 62
  256
370
   -1
100
AcDbLine
 10
229.999
 20
164.33
 11
230.051
 21
164.258
  0
LINE
  5
71
100
AcDbEntity
  8
View002
  6
ByLayer
 62
  256
370
   -1
100
AcDbLine
 10
229.999
 20
161.405
 11
229.999
 21
164.33
  0
ARC
  5
72
100
AcDbEntity
  8
View002
  6
ByLayer
 62
  256
370
   -1
100
AcDbCircle
 10
224.938
 20
174.159
 40
11.055
100
AcDbArc
 50
-138.955
 51
-62.7586
  0
ELLIPSE
  5
73
100
AcDbEntity
  8
View002
  6
ByLayer
 62
  256
370
   -1
100
AcDbEllipse
 10
215.831
 20
166.2
 30
0
 11
0.111364
 21
1.02995
 31
0
 40
0.993027
 41
5.55511
 42
0.709322
  0
LINE
  5
74
100
AcDbEntity
  8
View002
  6
ByLayer
 62
  256
370
   -1
100
AcDbLine
 10
214.887
 20
166.797
 11
215.245
 21
167.059
  0
LINE
  5
75
100
AcDbEntity
  8
View002
  6
ByLayer
 62
  256
370
   -1
100
AcDbLine
 10
215.245
 20
181.259
 11
214.887
 21
181.522
  0
ELLIPSE
  5
76
100
AcDbEntity
  8
View002
  6
ByLayer
 62
  256
370
   -1
100
AcDbEllipse
 10
215.832
 20
182.118
 30
0
 11
0.111346
 21
-1.02953
 31
0
 40
0.993027
 41
5.57357
 42
0.7307979999999999
  0
ARC
  5
77
100
AcDbEntity
  8
View002
  6
ByLayer
 62
  256
370
   -1
100
AcDbCircle
 10
224.938
 20
174.159
 40
11.055
100
AcDbArc
 50
46.8129
 51
138.942
  0
SPLINE
  5
78
100
AcDbEntity
  8
View002
  6
ByLayer
 62
  256
370
   -1
100
AcDbSpline
210
0
220
0
230
0
 70
    8
 71
    3
 72
    8
 73
    4
 74
    0
 42
1e-07
 43
1e-07
 40
-0.152914
 40
-0.152914
 40
-0.152914
 40
-0.152914
 40
-2.36036e-05
 40
-2.36036e-05
 40
-2.36036e-05
 40
-2.36036e-05
 10
232.504
 20
182.22
 30
0
 10
232.876
 20
181.873
 30
0
 10
233.381
 20
181.674
 30
0
 10
233.89
 20
181.673
 30
0
  0
LINE
  5
79
100
AcDbEntity
  8
View002
  6
ByLayer
 62
  256
370
   -1
100
AcDbLine
 10
233.89
 20
181.672
 11
241.614
 21
181.672
  0
SPLINE
  5
7A
100
AcDbEntity
  8
View002
  6
ByLayer
 62
  256
370
   -1
100
AcDbSpline
210
0
220
0
230
0
 70
    8
 71
    3
 72
    8
 73
    4
 74
    0
 42
1e-07
 43
1e-07
 40
-0.152873
 40
-0.152873
 40
-0.152873
 40
-0.152873
 40
-2.0067e-05
 40
-2.0067e-05
 40
-2.0067e-05
 40
-2.0067e-05
 10
241.614
 20
181.673
 30
0
 10
242.123
 20
181.674
 30
0
 10
242.628
 20
181.873
 30
0
 10
243
 20
182.22
 30
0
  0
ARC
  5
7B
100
AcDbEntity
  8
View002
  6
ByLayer
 62
  256
370
   -1
100
AcDbCircle
 10
250.566
 20
174.159
 40
11.055
100
AcDbArc
 50
41.0304
 51
133.187
  0
SPLINE
  5
7C
100
AcDbEntity
  8
View002
  6
ByLayer
 62
  256
370
   -1
100
AcDbSpline
210
0
220
0
230
0
 70
    8
 71
    3
 72
    8
 73
    4
 74
    0
 42
1e-07
 43
1e-07
 40
0
 40
0
 40
0
 40
0
 40
1
 40
1
 40
1
 40
1
 10
260.258
 20
181.259
 30
0
 10
259.854
 20
180.982
 30
0
 10
259.236
 20
181.052
 30
0
 10
258.905
 20
181.416
 30
0
  0
LINE
  5
7D
100
AcDbEntity
  8
View002
  6
ByLayer
 62
  256
370
   -1
100
AcDbLine
 10
260.617
 20
181.522
 11
260.258
 21
181.259
  0
ARC
  5
7E
100
AcDbEntity
  8
View002
  6
ByLayer
 62
  256
370
   -1
100
AcDbCircle
 10
250.566
 20
174.159
 40
12.4596
100
AcDbArc
 50
-36.2215
 51
36.2215
  0
LINE
  5
7F
100
AcDbEntity
  8
View002
  6
ByLayer
 62
  256
370
   -1
100
AcDbLine
 10
260.259
 20
167.059
 11
260.617
 21
166.797
  0
ELLIPSE
  5
80
100
AcDbEntity
  8
View002
  6
ByLayer
 62
  256
370
   -1
100
AcDbEllipse
 10
259.672
 20
166.201
 30
0
 11
-0.111326
 21
1.02907
 31
0
 40
0.993027
 41
5.5732
 42
0.733232
  0
ARC
  5
81
100
AcDbEntity
  8
View002
  6
ByLayer
 62
  256
370
   -1
100
AcDbCircle
 10
250.566
 20
174.159
 40
11.055
100
AcDbArc
 50
-117.241
 51
-41.0697
  0
LINE
  5
82
100
AcDbEntity
  8
View002
  6
ByLayer
 62
  256
370
   -1
100
AcDbLine
 10
245.505
 20
164.33
 11
245.505
 21
161.405
  0
ELLIPSE
  5
83
100
AcDbEntity
  8
View002
  6
ByLayer
 62
  256
370
   -1
100
AcDbEllipse
 10
239.336
 20
183.683
 30
0
 11
-0.147098
 21
-0.994324
 31
0
 40
0.999852
 41
0.146117
 42
1.01422
  0
LINE
  5
84
100
AcDbEntity
  8
View002
  6
ByLayer
 62
  256
370
   -1
100
AcDbLine
 10
236.169
 20
182.677
 11
239.335
 21
182.677
  0
ELLIPSE
  5
85
100
AcDbEntity
  8
View002
  6
ByLayer
 62
  256
370
   -1
100
AcDbEllipse
 10
236.168
 20
183.683
 30
0
 11
0.147098
 21
-0.994324
 31
0
 40
0.999852
 41
-1.01417
 42
-0.146401
  0
ELLIPSE
  5
86
100
AcDbEntity
  8
View002
  6
ByLayer
 62
  256
370
   -1
100
AcDbEllipse
 10
236.156
 20
183.767
 30
0
 11
0.147098
 21
-0.994324
 31
0
 40
0.999852
 41
-1.01821
 42
-0.149903
  0
LINE
  5
87
100
AcDbEntity
  8
View002
  6
ByLayer
 62
  256
370
   -1
100
AcDbLine
 10
239.351
 20
182.763
 11
236.153
 21
182.763
  0
ELLIPSE
  5
88
100
AcDbEntity
  8
View002
  6
ByLayer
 62
  256
370
   -1
100
AcDbEllipse
 10
239.348
 20
183.767
 30
0
 11
-0.147098
 21
-0.994324
 31
0
 40
0.999852
 41
-6.13336
 42
-5.27171
  0
LINE
  5
89
100
AcDbEntity
  8
View002
  6
ByLayer
 62
  256
370
   -1
100
AcDbLine
 10
245.453
 20
164.258
 11
245.505
 21
164.33
  0
LINE
  5
8A
100
AcDbEntity
  8
View002
  6
ByLayer
 62
  256
370
   -1
100
AcDbLine
 10
245.453
 20
164.258
 11
245.453
 21
162.787
  0
SPLINE
  5
8B
100
AcDbEntity
  8
View002
  6
ByLayer
 62
  256
370
   -1
100
AcDbSpline
210
0
220
0
230
0
 70
    8
 71
    1
 72
    4
 73
    2
 74
    0
 42
1e-07
 43
1e-07
 40
0
 40
0
 40
0.999992
 40
0.999992
 10
239.35
 20
165.569
 30
0
 10
239.35
 20
165.555
 30
0
  0
ENDSEC
  0
SECTION
  2
OBJECTS
  0
DICTIONARY
  5
C
330
0
100
AcDbDictionary
281
    1
  3
ACAD_GROUP
350
D
  0
DICTIONARY
  5
D
330
C
100
AcDbDictionary
281
    1
  0
ENDSEC
  0
EOF
